# xmcd
#
# Track frame offsets: 
#        150
#        30603
#        45450
#        61150
#        74026
#        83675
#        105100
#        118690
#        129400
#        144199
#        156938
#        172862
#        191972
#        210160
#        225261
#        237133
#        248334
#        263845
#        276645
#        285719
#        300920
#        318120
#
# Disc length: 4394 seconds
#
# Revision: 1
# Processed by: cddbd v1.5.2PL0 Copyright (c) Steve Scherf et al.
# Submitted via: ExactAudioCopy v1.1
#
DISCID=1b112816
DTITLE=Johnny Cash - Heroes And Friends [CD1]
DYEAR=1900
DGENRE=Country
TTITLE0=The Good, The Bad, And The Cookie Kid
TTITLE1=Amazing Grace (with Joanne Cash Yates)
TTITLE2=I Shall Be Free
TTITLE3=That Silver Haired Daddy Of Mine (with Tommy Cash)
TTITLE4=What's Good For You
TTITLE5=Forever Young
TTITLE6=The Death Of Me (with Levon Helm)
TTITLE7=The Human Condition (with Willie Nelson)
TTITLE8=Battle Of Nashville
TTITLE9=Get Rhythm (with Martin Delray)
TTITLE10=Crazy Old Soldier (with Ray Charles)
TTITLE11=Suffer Little Children (with Glen Campbell)
TTITLE12=Give Me Back My Job (with Perkins, Bono, Nelson, and Petty)
TTITLE13=The Love That Never Failed
TTITLE14=Love Me Tender (with Julie Andrews)
TTITLE15=Didn't It Rain
TTITLE16=I Still Miss Someone (with Earl Scruggs)
TTITLE17=Better Class Of Losers (with John Schneider and Waylong Jenni
TTITLE17=ngs)
TTITLE18=Jealous Loving Heart (with Ernest Tubb)
TTITLE19=Doin' My Time (with Marty Stuart)
TTITLE20=Woodcarver (with Sandy Kelly)
TTITLE21=Ragged Old Flag
EXTD=
EXTT0=
EXTT1=
EXTT2=
EXTT3=
EXTT4=
EXTT5=
EXTT6=
EXTT7=
EXTT8=
EXTT9=
EXTT10=
EXTT11=
EXTT12=
EXTT13=
EXTT14=
EXTT15=
EXTT16=
EXTT17=
EXTT18=
EXTT19=
EXTT20=
EXTT21=
PLAYORDER=
